<svg width="178" height="39" viewBox="0 0 178 39" fill="none" xmlns="http://www.w3.org/2000/svg">
<path d="M39.3094 3.219C38.9459 2.6255 38.3 2.26367 37.604 2.26367H3.57046C2.00768 2.26367 1.04868 3.97569 1.86498 5.30834L21.9168 38.044C22.2803 38.6376 22.9263 38.9994 23.6222 38.9994H57.6557C59.2185 38.9994 60.1775 37.2874 59.3612 35.9547L39.3094 3.219Z" fill="#12607D"/>
<path d="M58.9169 4.22291V8.38629L67.2436 2.26367" stroke="#1BA1BF" stroke-width="3" stroke-linecap="round"/>
<path d="M41.7736 4.22266H54.0188" stroke="#1BA1BF" stroke-width="2" stroke-linecap="round"/>
<path d="M38.8347 7.65234H51.08" stroke="#1BA1BF" stroke-width="2" stroke-linecap="round"/>
<path d="M49.4706 18.9182V23.0816L57.7973 16.959" stroke="#1BA1BF" stroke-width="3" stroke-linecap="round"/>
<path d="M32.3273 18.918H44.5725" stroke="#1BA1BF" stroke-width="2" stroke-linecap="round"/>
<path d="M29.3884 22.3477H41.6337" stroke="#1BA1BF" stroke-width="2" stroke-linecap="round"/>
<path d="M68.0565 31.14C67.8885 31.14 67.6832 31.0467 67.4405 30.86C67.2165 30.6547 67.0205 30.412 66.8525 30.132C66.6845 29.8333 66.6005 29.5347 66.6005 29.236C66.6005 28.8813 66.7125 28.2933 66.9365 27.472C67.1605 26.632 67.4405 25.652 67.7765 24.532C68.1125 23.412 68.4485 22.236 68.7845 21.004C69.1392 19.772 69.4285 18.568 69.6525 17.392C69.8952 16.216 70.0258 15.1613 70.0445 14.228C69.5965 13.8173 69.3725 13.444 69.3725 13.108C69.3725 12.884 69.5498 12.66 69.9045 12.436C70.2592 12.1933 70.7165 11.9787 71.2765 11.792C71.8365 11.5867 72.4338 11.428 73.0685 11.316C73.7218 11.1853 74.3378 11.12 74.9165 11.12C76.1112 11.12 77.1658 11.3347 78.0805 11.764C79.0138 12.1747 79.7418 12.7533 80.2645 13.5C80.7872 14.228 81.0485 15.0867 81.0485 16.076C81.0485 17.42 80.6098 18.6333 79.7325 19.716C78.8552 20.78 77.6232 21.6947 76.0365 22.46C74.4498 23.2253 72.6018 23.8133 70.4925 24.224C69.1298 28.8347 68.3178 31.14 68.0565 31.14ZM71.1085 22.04C72.6018 21.648 73.9085 21.144 75.0285 20.528C76.1485 19.912 77.0165 19.24 77.6325 18.512C78.2672 17.7653 78.5845 17.0093 78.5845 16.244C78.5845 15.4227 78.2765 14.7507 77.6605 14.228C77.0445 13.6867 76.3352 13.416 75.5325 13.416C74.9165 13.416 74.3658 13.4813 73.8805 13.612C73.4138 13.7427 72.8538 13.9573 72.2005 14.256C72.3872 14.6667 72.4805 15.0493 72.4805 15.404C72.4805 16.4493 72.0232 18.6613 71.1085 22.04ZM84.3916 31.14C83.421 31.14 82.5623 30.944 81.8156 30.552C81.0876 30.1413 80.509 29.5907 80.0796 28.9C79.669 28.2093 79.4636 27.4253 79.4636 26.548C79.4636 25.8013 79.585 25.008 79.8276 24.168C80.089 23.328 80.4436 22.5067 80.8916 21.704C81.3583 20.8827 81.8903 20.136 82.4876 19.464C83.1036 18.792 83.757 18.26 84.4476 17.868C85.1383 17.4573 85.857 17.252 86.6036 17.252C87.1636 17.252 87.6956 17.4013 88.1996 17.7C88.7223 17.98 89.189 18.3533 89.5996 18.82C90.029 19.2867 90.365 19.7907 90.6076 20.332C90.8503 20.8733 90.9716 21.3867 90.9716 21.872C90.9716 22.488 90.7943 23.0107 90.4396 23.44C90.085 23.8693 89.6276 24.224 89.0676 24.504C88.5076 24.7653 87.901 24.9613 87.2476 25.092C86.613 25.204 86.0156 25.26 85.4556 25.26C84.2423 25.26 83.1036 25.1107 82.0396 24.812C81.7783 25.6333 81.6476 26.3613 81.6476 26.996C81.6476 27.6493 81.8436 28.1533 82.2356 28.508C82.6463 28.8627 83.3183 29.04 84.2516 29.04C84.9236 29.04 85.577 28.956 86.2116 28.788C86.8463 28.62 87.3876 28.4613 87.8356 28.312C88.3023 28.144 88.5916 28.06 88.7036 28.06C89.189 28.06 89.4316 28.2467 89.4316 28.62C89.4316 28.8627 89.273 29.1333 88.9556 29.432C88.6383 29.7307 88.2276 30.0107 87.7236 30.272C87.2196 30.5147 86.669 30.72 86.0716 30.888C85.493 31.056 84.933 31.14 84.3916 31.14ZM85.2316 23.468C86.1836 23.468 87.0143 23.3187 87.7236 23.02C88.433 22.7027 88.7876 22.292 88.7876 21.788C88.7876 21.452 88.6756 21.1067 88.4516 20.752C88.2463 20.3787 87.985 20.0707 87.6676 19.828C87.3503 19.5853 87.0423 19.464 86.7436 19.464C86.053 19.464 85.3343 19.828 84.5876 20.556C83.841 21.2653 83.2063 22.152 82.6836 23.216C83.4303 23.384 84.2796 23.468 85.2316 23.468ZM95.2611 31.14C94.7198 31.14 94.1971 30.9627 93.6931 30.608C93.2078 30.2533 92.8064 29.8147 92.4891 29.292C92.1904 28.7693 92.0411 28.2373 92.0411 27.696C92.0411 26.9307 92.1718 26.0813 92.4331 25.148C92.6944 24.2147 93.0491 23.2907 93.4971 22.376C93.9638 21.4427 94.5051 20.5933 95.1211 19.828C95.7558 19.044 96.4371 18.4187 97.1651 17.952C97.8931 17.4853 98.6491 17.252 99.4331 17.252C100.758 17.252 101.682 18.0453 102.205 19.632C102.69 17.6533 103.064 15.88 103.325 14.312C103.586 12.744 103.736 11.3907 103.773 10.252C103.81 9.692 104.016 9.412 104.389 9.412C104.594 9.412 104.828 9.54267 105.089 9.804C105.369 10.0653 105.612 10.3827 105.817 10.756C106.041 11.1293 106.153 11.4747 106.153 11.792C106.153 12.016 106.078 12.5387 105.929 13.36C105.798 14.1627 105.602 15.152 105.341 16.328C105.098 17.4853 104.828 18.736 104.529 20.08C104.23 21.4053 103.913 22.7213 103.577 24.028C103.241 25.3347 102.914 26.5293 102.597 27.612C102.298 28.676 102.018 29.5347 101.757 30.188C101.514 30.8227 101.318 31.14 101.169 31.14C100.926 31.14 100.646 30.972 100.329 30.636C100.198 30.5053 100.086 30.356 99.9931 30.188C99.8998 30.02 99.8531 29.8053 99.8531 29.544C99.8531 29.4133 99.8718 29.2453 99.9091 29.04C99.9651 28.816 100.012 28.5827 100.049 28.34C98.2198 30.2067 96.6238 31.14 95.2611 31.14ZM95.5691 28.9C95.9424 28.9 96.3998 28.7507 96.9411 28.452C97.4824 28.1533 98.0424 27.752 98.6211 27.248C99.1998 26.7253 99.7318 26.128 100.217 25.456C100.702 24.784 101.066 24.084 101.309 23.356C101.309 22.1987 101.132 21.284 100.777 20.612C100.441 19.9213 100.03 19.576 99.5451 19.576C98.9664 19.576 98.3691 19.828 97.7531 20.332C97.1371 20.836 96.5678 21.4987 96.0451 22.32C95.5411 23.1413 95.1304 24.0373 94.8131 25.008C94.4958 25.96 94.3371 26.884 94.3371 27.78C94.3371 28.116 94.4584 28.3867 94.7011 28.592C94.9438 28.7973 95.2331 28.9 95.5691 28.9ZM112.286 15.46C111.987 15.46 111.651 15.3293 111.278 15.068C110.923 14.8067 110.615 14.508 110.354 14.172C110.092 13.8173 109.962 13.5187 109.962 13.276C109.962 12.9027 110.111 12.548 110.41 12.212C110.708 11.876 111.016 11.708 111.334 11.708C111.52 11.708 111.754 11.8947 112.034 12.268C112.314 12.6227 112.556 13.0427 112.762 13.528C112.967 13.9947 113.07 14.396 113.07 14.732C113.07 14.9187 112.986 15.0867 112.818 15.236C112.65 15.3853 112.472 15.46 112.286 15.46ZM107.246 31.112C106.984 31.112 106.76 31.0093 106.574 30.804C106.387 30.58 106.294 30.328 106.294 30.048C106.294 29.9733 106.359 29.6187 106.49 28.984C106.639 28.3493 106.816 27.5747 107.022 26.66C107.246 25.7267 107.479 24.7467 107.722 23.72C107.983 22.6933 108.226 21.732 108.45 20.836C108.674 19.9213 108.86 19.184 109.01 18.624C109.271 17.7093 109.542 17.252 109.822 17.252C110.064 17.252 110.298 17.3547 110.522 17.56C110.746 17.7653 110.932 18.0173 111.082 18.316C111.231 18.596 111.306 18.876 111.306 19.156C111.306 19.6787 111.175 20.4627 110.914 21.508C110.652 22.5533 110.307 23.7853 109.878 25.204C109.448 26.604 108.972 28.1067 108.45 29.712C108.132 30.6453 107.731 31.112 107.246 31.112ZM115.906 31.14C115.364 31.14 114.842 30.9627 114.338 30.608C113.852 30.2533 113.451 29.8147 113.134 29.292C112.835 28.7693 112.686 28.2373 112.686 27.696C112.686 26.9307 112.816 26.0813 113.078 25.148C113.339 24.2147 113.694 23.2907 114.142 22.376C114.608 21.4427 115.15 20.5933 115.766 19.828C116.4 19.044 117.082 18.4187 117.81 17.952C118.538 17.4853 119.294 17.252 120.078 17.252C121.403 17.252 122.327 18.0453 122.85 19.632C123.335 17.6533 123.708 15.88 123.97 14.312C124.231 12.744 124.38 11.3907 124.418 10.252C124.455 9.692 124.66 9.412 125.034 9.412C125.239 9.412 125.472 9.54267 125.734 9.804C126.014 10.0653 126.256 10.3827 126.462 10.756C126.686 11.1293 126.798 11.4747 126.798 11.792C126.798 12.016 126.723 12.5387 126.574 13.36C126.443 14.1627 126.247 15.152 125.986 16.328C125.743 17.4853 125.472 18.736 125.174 20.08C124.875 21.4053 124.558 22.7213 124.222 24.028C123.886 25.3347 123.559 26.5293 123.242 27.612C122.943 28.676 122.663 29.5347 122.402 30.188C122.159 30.8227 121.963 31.14 121.814 31.14C121.571 31.14 121.291 30.972 120.974 30.636C120.843 30.5053 120.731 30.356 120.638 30.188C120.544 30.02 120.498 29.8053 120.498 29.544C120.498 29.4133 120.516 29.2453 120.554 29.04C120.61 28.816 120.656 28.5827 120.694 28.34C118.864 30.2067 117.268 31.14 115.906 31.14ZM116.214 28.9C116.587 28.9 117.044 28.7507 117.586 28.452C118.127 28.1533 118.687 27.752 119.266 27.248C119.844 26.7253 120.376 26.128 120.862 25.456C121.347 24.784 121.711 24.084 121.954 23.356C121.954 22.1987 121.776 21.284 121.422 20.612C121.086 19.9213 120.675 19.576 120.19 19.576C119.611 19.576 119.014 19.828 118.398 20.332C117.782 20.836 117.212 21.4987 116.69 22.32C116.186 23.1413 115.775 24.0373 115.458 25.008C115.14 25.96 114.982 26.884 114.982 27.78C114.982 28.116 115.103 28.3867 115.346 28.592C115.588 28.7973 115.878 28.9 116.214 28.9ZM130.494 31.14C129.86 31.14 129.29 30.944 128.786 30.552C128.282 30.1413 127.881 29.5907 127.582 28.9C127.302 28.1907 127.162 27.3787 127.162 26.464C127.162 25.736 127.274 24.9613 127.498 24.14C127.722 23.3 128.04 22.4787 128.45 21.676C128.861 20.8547 129.346 20.1173 129.906 19.464C130.466 18.792 131.082 18.26 131.754 17.868C132.445 17.4573 133.173 17.252 133.938 17.252C134.666 17.252 135.32 17.4667 135.898 17.896C136.496 18.3253 136.962 18.9133 137.298 19.66C137.653 20.388 137.83 21.2 137.83 22.096C137.83 23.2907 137.625 24.4293 137.214 25.512C136.804 26.5947 136.244 27.5653 135.534 28.424C134.844 29.264 134.06 29.9267 133.182 30.412C132.324 30.8973 131.428 31.14 130.494 31.14ZM130.634 29.236C131.213 29.236 131.782 29.0027 132.342 28.536C132.921 28.0507 133.444 27.4347 133.91 26.688C134.396 25.9227 134.778 25.1293 135.058 24.308C135.338 23.468 135.478 22.7027 135.478 22.012C135.478 21.5827 135.413 21.144 135.282 20.696C135.17 20.2293 135.021 19.8373 134.834 19.52C134.648 19.184 134.461 19.016 134.274 19.016C133.826 19.016 133.378 19.1933 132.93 19.548C132.482 19.9027 132.053 20.3693 131.642 20.948C131.232 21.5267 130.868 22.1613 130.55 22.852C130.233 23.524 129.981 24.196 129.794 24.868C129.626 25.54 129.542 26.1467 129.542 26.688C129.542 27.2853 129.645 27.864 129.85 28.424C130.056 28.9653 130.317 29.236 130.634 29.236Z" fill="#12607D"/>
<path d="M140.998 31.504C140.699 31.504 140.428 31.476 140.186 31.42C139.943 31.3827 139.822 31.196 139.822 30.86C139.822 30.6173 139.906 30.188 140.074 29.572C140.242 28.9373 140.475 28.2 140.774 27.36C141.072 26.5013 141.408 25.5867 141.782 24.616C142.155 23.6267 142.556 22.6467 142.986 21.676C143.415 20.7053 143.835 19.8093 144.246 18.988C143.686 19.4547 143.116 19.8933 142.538 20.304C141.978 20.7147 141.464 21.0507 140.998 21.312C140.55 21.5733 140.214 21.704 139.99 21.704C139.598 21.704 139.402 21.5267 139.402 21.172C139.402 20.9293 139.598 20.6867 139.99 20.444C140.624 20.052 141.334 19.5853 142.118 19.044C142.92 18.484 143.779 17.7653 144.694 16.888C145.608 15.992 146.542 14.8533 147.494 13.472C147.718 13.1173 147.904 12.8653 148.054 12.716C148.203 12.548 148.39 12.464 148.614 12.464C148.707 12.464 148.8 12.5013 148.894 12.576C149.006 12.6507 149.062 12.7627 149.062 12.912C149.062 12.968 148.922 13.3693 148.642 14.116C148.362 14.844 147.988 15.8147 147.522 17.028C147.055 18.2413 146.532 19.6133 145.954 21.144C145.394 22.656 144.824 24.2427 144.246 25.904C143.667 27.5467 143.135 29.1613 142.65 30.748C142.538 31.1027 142.342 31.3173 142.062 31.392C141.782 31.4667 141.427 31.504 140.998 31.504ZM154.59 31C152.78 31 151.408 30.4307 150.474 29.292C149.56 28.1347 149.102 26.5853 149.102 24.644C149.102 23.468 149.242 22.2547 149.522 21.004C149.802 19.7533 150.232 18.5867 150.81 17.504C151.408 16.4213 152.173 15.5533 153.106 14.9C154.04 14.228 155.16 13.892 156.466 13.892C157.717 13.892 158.753 14.172 159.574 14.732C160.396 15.2733 161.012 16.0293 161.422 17C161.833 17.9707 162.038 19.0907 162.038 20.36C162.038 21.256 161.936 22.1987 161.73 23.188C161.525 24.1773 161.217 25.1387 160.806 26.072C160.396 26.9867 159.882 27.8173 159.266 28.564C158.669 29.3107 157.978 29.908 157.194 30.356C156.41 30.7853 155.542 31 154.59 31ZM154.31 29.376C155.02 29.376 155.636 29.1427 156.158 28.676C156.7 28.1907 157.157 27.5653 157.53 26.8C157.922 26.016 158.24 25.176 158.482 24.28C158.744 23.3653 158.93 22.4693 159.042 21.592C159.154 20.7147 159.21 19.9493 159.21 19.296C159.21 18.5493 159.126 17.868 158.958 17.252C158.809 16.636 158.548 16.1413 158.174 15.768C157.801 15.3947 157.297 15.208 156.662 15.208C155.99 15.208 155.384 15.4507 154.842 15.936C154.32 16.4213 153.862 17.0653 153.47 17.868C153.078 18.652 152.752 19.5013 152.49 20.416C152.248 21.3307 152.061 22.236 151.93 23.132C151.818 24.0093 151.762 24.7747 151.762 25.428C151.762 26.1373 151.828 26.7907 151.958 27.388C152.108 27.9853 152.369 28.4707 152.742 28.844C153.116 29.1987 153.638 29.376 154.31 29.376Z" fill="#1BA1BF"/>
</svg>
